<?xml version="1.0" encoding="UTF-8"?>
<svg id="Layer_1" data-name="Layer 1" xmlns="http://www.w3.org/2000/svg" viewBox="0 0 192 192">
  <defs>
    <style>
      .cls-1 {
        fill: #3f88c5;
      }

      .cls-2 {
        fill: #cfe8ef;
      }

      .cls-3 {
        fill: #15303f;
      }
    </style>
  </defs>
  <path class="cls-1" d="M73.6,57.13h-19.15c-5.12,0-9.28,4.16-9.28,9.28v7.32c0,5.12,4.16,9.28,9.28,9.28h19.15v-25.87Z"/>
  <path class="cls-2" d="M46.29,145.24c2.09-.39,4.46.68,7.46,2.03,3.5,1.57,7.47,3.35,10.89,2.72l29.49-5.41c2.24-.41,4.18-1.67,5.46-3.54,1.29-1.87,1.77-4.13,1.37-6.36l-4.8-26.17c-.41-2.23-1.67-4.17-3.54-5.46-1.87-1.29-4.13-1.77-6.36-1.36l-23.14,4.24c-.55.1-1.13-.02-1.6-.34-.46-.32-.79-.82-.89-1.38l-1.05-5.75-.25.05c-5.13.94-9.41,7.16-11.5,10.78-2.96,5.12-5.56,5.93-8.41,6.4l-6.72,1.22,5.46,29.82,8.11-1.49Z"/>
  <polygon class="cls-1" points="34.67 151.24 27.7 113.26 13.1 116.24 20.06 154.22 34.67 151.24"/>
  <path class="cls-1" d="M128.66,37.96c-26.49,16.84-44.61,19.01-50.79,19.2v25.83c6.18.18,24.3,2.35,50.79,19.2V37.96Z"/>
  <path class="cls-1" d="M63.3,95.25s0,0,0,.01c.04.1.07.21.09.33l.12.69.93,5.06,15.82-2.9h0s-1.07-11.09-1.07-11.09c-.82-.06-1.48-.09-2-.1v.02h-15.59l1.68,7.97Z"/>
  <rect class="cls-1" x="132.93" y="37.39" width="3.54" height="65.36"/>
  <polygon class="cls-1" points="145.6 62.09 140.73 59.24 140.73 80.89 145.6 78.05 145.6 62.09"/>
  <rect class="cls-3" x="154.94" y="67.93" width="28.57" height="4.27"/>
  <rect class="cls-3" x="153.47" y="49.79" width="26.88" height="4.27" transform="translate(-5.33 81.75) rotate(-27.1)"/>
  <rect class="cls-3" x="164.77" y="72.71" width="4.27" height="26.88" transform="translate(14.19 195.5) rotate(-62.9)"/>
  <path class="cls-3" d="M17.16,158.52c.35.24.77.36,1.19.36.15,0,.29-.01.43-.04l18.79-3.83c1.14-.24,1.88-1.34,1.67-2.48l-.29-1.6,8.11-1.49c.76-.15,3.18.93,4.94,1.73,3.26,1.46,7.19,3.21,11.16,3.21.75,0,1.49-.06,2.24-.2l29.49-5.41c3.35-.61,6.27-2.5,8.21-5.3,1.93-2.81,2.66-6.21,2.05-9.56l-4.8-26.16c-.61-3.36-2.49-6.27-5.3-8.21-2.81-1.94-6.2-2.67-9.56-2.05l-.99.18-.94-9.79c8.56,1.36,23.94,5.62,44.24,18.79.35.22.75.34,1.16.34h1.8s.03,0,.05,0h7.81c1.18,0,2.13-.96,2.13-2.13v-19.66l.27.46,7.81-4.56c.65-.38,1.06-1.08,1.06-1.84v-18.41c0-.76-.4-1.46-1.06-1.84l-7.81-4.56-.27.46v-19.66c0-1.18-.96-2.13-2.13-2.13h-7.81s-.03,0-.05,0h0s-1.8,0-1.8,0c-.41,0-.82.12-1.16.34-31.87,20.68-51.68,19.42-51.87,19.41-.06,0-.12.02-.18.02v-.03h-21.29c-7.47,0-13.55,6.08-13.55,13.55v7.32c0,7.47,6.08,13.55,13.55,13.55h2.81l1.48,7.01h0s-.17.03-.17.03c-6.48,1.18-11.42,7.63-14.43,12.84-2.18,3.79-3.54,4.02-5.41,4.32l-6.78,1.24-.43-2.36c-.1-.57-.43-1.07-.9-1.39-.48-.32-1.06-.43-1.63-.32l-18.79,3.84c-1.14.24-1.88,1.34-1.67,2.48l7.73,42.17c.1.57.43,1.07.9,1.39ZM140.73,59.24l4.86,2.84v15.96l-4.86,2.84v-21.65ZM132.93,37.39h3.54v65.36h-3.54V37.39ZM77.87,57.15c6.18-.18,24.3-2.35,50.79-19.2v64.22c-26.49-16.85-44.61-19.01-50.79-19.2v-25.83ZM77.21,87.27v-.02c.51,0,1.18.04,2,.1l1.07,11.09h0s-15.82,2.9-15.82,2.9l-.93-5.06-.12-.69c-.02-.12-.05-.23-.09-.33,0,0,0,0,0-.01l-1.68-7.97h15.59ZM54.45,83c-5.12,0-9.28-4.16-9.28-9.28v-7.32c0-5.12,4.16-9.28,9.28-9.28h19.15v25.87h-19.15ZM39.43,115.69c2.85-.47,5.45-1.28,8.41-6.4,2.09-3.62,6.36-9.83,11.5-10.78l.25-.05,1.05,5.75c.1.56.43,1.05.89,1.38.46.32,1.04.44,1.6.34l23.14-4.24c2.23-.41,4.49.07,6.36,1.36,1.87,1.29,3.13,3.24,3.54,5.46l4.8,26.17c.4,2.23-.07,4.49-1.37,6.36-1.29,1.87-3.23,3.13-5.46,3.54l-29.49,5.41c-3.41.63-7.38-1.15-10.89-2.72-3-1.35-5.37-2.42-7.46-2.03l-8.11,1.49-5.46-29.82,6.72-1.22ZM27.7,113.26l6.97,37.98-14.61,2.98-6.97-37.97,14.61-2.99Z"/>
</svg>